<?xml version="1.0" standalone="no"?><!DOCTYPE svg PUBLIC "-//W3C//DTD SVG 1.1//EN" "http://www.w3.org/Graphics/SVG/1.1/DTD/svg11.dtd"><svg t="1582606194221" class="icon" viewBox="0 0 1024 1024" version="1.1" xmlns="http://www.w3.org/2000/svg" p-id="3400" xmlns:xlink="http://www.w3.org/1999/xlink" width="200" height="200"><defs><style type="text/css"></style></defs><path d="M448.9725 5.585874c-144.881397 32.332289-246.175594 151.429708-258.044409 302.654782-1.227808 18.826396-4.092695 33.969367-6.139042 33.969367-6.139042 0-19.644935 26.193247-19.644935 38.062062 0 6.139042-2.864886 15.96151-6.548312 21.282013-4.911234 7.77612-6.139042 17.189318-4.911234 39.699139l1.637078 29.876673-25.783977 33.969367C66.714803 587.567077 42.158634 675.355381 60.985031 748.819253c8.594659 32.332289 13.915162 37.652792 30.695211 30.695211 13.096623-5.320503 46.861356-40.517679 54.228206-56.274553 4.501964-9.822468 11.050276-12.278084 11.050276-4.092695 0 9.822468 24.965438 57.911632 43.382565 84.104878 10.231737 14.324432 18.007857 26.602516 17.189319 27.011786-0.409269 0.818539-8.594659 5.320503-17.598588 9.822468-33.560098 17.189318-48.089164 42.154757-48.498434 84.514148-0.409269 14.733701 2.046347 24.146899 7.77612 32.332289 4.501964 6.548312 10.231737 15.142971 12.687354 19.235666 14.324432 24.556169 40.517679 36.834253 95.155155 45.019643 40.926948 5.729773 68.961908 3.274156 149.383361-12.687354 81.239992-15.96151 115.209359-15.96151 199.723507 0.818539 119.711324 23.73763 192.356657 15.96151 230.827988-24.556169 28.648864-31.104481 37.243523-56.274554 27.421055-80.421454-3.274156-7.366851-4.911234-14.733701-3.683425-15.55224 0.818539-1.227808-1.227808-7.77612-4.501964-14.733701-7.77612-14.324432-27.421055-30.285942-48.498434-39.289871l-14.733701-6.139042 21.691282-31.923019c11.868815-17.598588 26.602516-45.019643 33.150828-61.185788l11.459546-29.467403 15.142971 23.328361c15.96151 24.556169 38.062062 47.270625 49.726242 51.36332 17.189318 6.139042 31.51375-29.467403 34.787906-84.923418 1.637078-29.467403 0.409269-44.201104-6.548312-71.417524-9.822468-40.517679-41.745487-106.205431-66.91556-139.970163-17.598588-23.32836-18.007857-23.32836-13.915163-45.019643 4.911234-27.830325-1.637078-60.776518-17.598587-86.151226-9.822468-15.142971-13.096623-26.602516-16.37078-54.637476-15.55224-133.831121-109.070317-245.561689-239.422647-287.307177-37.857427-12.278084-117.460341-15.142971-159.205828-5.729772z m175.985877 147.132378c18.007857 11.868815 31.104481 40.108409 33.560098 70.598986 6.548312 94.745885-66.91556 139.151624-106.205431 64.050674-13.505893-24.965438-13.096623-78.784375 0.409269-105.796161 15.55224-32.127654 47.884529-44.815008 72.236064-28.853499z m-171.483913 4.092695c18.417127 12.278084 31.51375 40.108409 33.560098 72.645333 2.046347 36.834253-4.092695 59.957979-22.100552 79.602915-16.370779 18.417127-33.150828 23.32836-51.77259 15.14297-29.467403-12.687354-44.815008-42.564026-44.815008-88.197573 0-34.378637 9.822468-59.957979 29.058133-76.328758 13.301258-11.459546 40.926948-12.687354 56.069919-2.864887z m176.395147 197.063256c53.000398 13.505893 111.116664 43.382565 111.116664 57.502362 0 7.77612-36.015714 30.695211-57.911631 36.834254-13.096623 4.092695-12.687354 2.864886 4.092694-19.644936 14.733701-19.644935 8.594659-20.054205-16.370779-1.227808-90.65319 68.143369-200.132777 69.780447-288.33035 3.683425-12.278084-9.003929-22.919091-15.55224-23.73763-14.324432-1.227808 0.818539 2.046347 8.594659 6.957581 16.780049 4.911234 8.18539 7.77612 15.96151 6.548312 17.189318-2.864886 2.864886-36.834253-11.868815-51.77259-22.919091-6.957581-4.911234-12.278084-12.278084-12.278084-16.780048 0-17.189318 74.282411-50.544781 138.53772-62.822866 43.996469-8.390024 138.333085-5.115869 183.148093 5.729773z m-263.774181 143.039684c33.969367 11.868815 93.927346 20.872744 136.900641 20.872744 25.783977 0 38.062062 1.637078 38.062062 4.911233 0 6.139042-80.421453 1.637078-125.031827-6.957581-35.197175-6.548312-71.008255-17.598588-76.738027-22.919091-6.752946-5.729773 1.841713-4.501964 26.807151 4.092695zM600.197573 517.786631c-6.548312 1.637078-22.509822 2.864886-34.787906 2.864886h-22.509821l24.556169-2.864886c13.505893-1.637078 29.058133-2.864886 34.787906-2.864887 8.799294-0.409269 8.390024 0-2.046348 2.864887z m-330.075837 60.367248c3.274156 2.046347 2.455617 16.370779-3.274156 55.865284-9.822468 65.687752-7.77612 91.06246 9.413198 110.298126 15.55224 18.007857 42.564026 27.830325 76.328759 28.239594 56.274554 0.818539 61.595057-6.548312 61.595057-85.741956v-51.77259l33.969367 3.683425c123.394749 13.096623 242.082899-11.868815 329.052663-69.780446 12.278084-8.18539 23.73763-13.096623 25.374708-11.459546 15.142971 15.142971 20.872744 114.39082 9.822468 158.38729C779.662241 842.132695 667.522403 931.148807 532.668109 937.28785c-94.745885 4.501964-172.302452-24.556169-236.762396-88.606843-48.907703-48.907703-77.147297-107.02397-83.695609-173.93953-2.864886-31.51375 3.274156-84.514148 12.687354-107.02397l5.729773-13.505893 17.189318 10.641007c9.617833 5.525138 19.4403 11.66418 22.305187 13.301258z m-34.992541 272.77811c3.274156 3.683425 12.278084 11.050276 20.054205 15.96151 7.77612 5.320503 21.691283 16.370779 31.104481 24.965438 9.003929 9.003929 29.876672 26.602516 45.633547 39.69914 21.282013 17.189318 29.467403 26.602516 29.467403 33.150828 0 12.278084-8.18539 14.733701-56.274554 14.733701-67.32483 0-119.302054-18.826396-132.398678-47.47526-4.501964-9.413198-3.683425-13.505893 5.729773-30.695211 9.822468-18.826396 10.231737-20.054205 2.864886-22.100552-10.231737-3.274156-5.729773-11.050276 12.687354-24.556169 16.575414-11.459546 33.355463-13.096623 41.131583-3.683425z m590.780498-0.818539c22.919091 11.868815 31.92302 31.104481 14.324432 31.104481-5.729773 0-5.729773 1.227808 0.818539 8.185389 4.092695 4.501964 8.18539 16.780049 9.413198 27.830325 1.637078 18.417127 0.818539 20.463474-13.096624 32.741559-22.919091 20.054205-53.000398 27.421055-111.935203 26.602516-37.652792 0-52.181859-1.637078-56.274554-6.139042-8.594659-8.18539 1.227808-20.054205 30.285942-36.424984 36.424984-20.872744 50.544781-31.92302 55.456015-41.336218 2.455617-4.911234 10.231737-10.231737 17.189318-12.278084 8.18539-2.046347 16.780049-9.003929 24.146899-19.644935 12.482719-18.417127 14.119797-18.826396 29.672038-10.641007zM572.367249 210.629884c-9.822468 10.641007-15.96151 29.876672-13.096624 40.926948 3.274156 13.505893 11.050276 9.413198 16.370779-9.822467 5.320503-20.054205 20.872744-24.965438 24.556169-8.18539l4.092695 21.282013c4.092695 18.417127 12.278084 8.594659 12.278085-14.733701-0.409269-17.598588-2.046347-22.919091-9.822468-29.058133-11.868815-9.822468-25.783977-9.822468-34.378636-0.40927z m-139.356259-3.683425c-15.96151 17.598588-14.733701 51.36332 2.455617 63.641404 12.687354 8.594659 18.417127 7.77612 29.876672-4.092695 7.77612-7.366851 10.231737-14.324432 10.231737-28.648863 0-30.490576-25.783977-49.316973-42.564026-30.899846z m28.239594 25.374708c0 11.459546-11.868815 15.55224-15.96151 5.320503-2.864886-7.77612 4.501964-19.235666 11.459546-16.780049 2.455617 0.818539 4.501964 5.729773 4.501964 11.459546z m0 0" p-id="3401" fill="#ffffff"></path></svg>